<svg width="45" height="45" fill="none" xmlns="http://www.w3.org/2000/svg"><path d="M4.31 22.088c3.377-1.081 6.753-1.824 10.045-2.212.081-1.556.238-3.068.464-4.51-.877.066-1.69.1-2.461.1-3.616 0-6.488-.739-8.783-2.256a11.45 11.45 0 0 1-1.154-.872A22.39 22.39 0 0 0 .03 23.66a48.447 48.447 0 0 1 4.28-1.571ZM4.427 9.326c.312.315.689.616 1.117.901 1.687 1.116 3.92 1.66 6.829 1.66.963 0 2.02-.06 3.219-.18.584-2.18 1.368-4.21 2.335-6.044A23.691 23.691 0 0 1 22.061 0C14.777.14 8.34 3.74 4.328 9.227l.099.099ZM19.465 11.201l.364-.053c6.259-.912 12.19-2.747 17.636-5.45A22.423 22.423 0 0 0 27.01.447l-.573.44c-2.199 1.696-4.007 3.88-5.377 6.494a24.916 24.916 0 0 0-1.595 3.82ZM39.882 8.482c-6.01 3.103-12.585 5.19-19.537 6.203l-.322.047c-.443.064-.965.14-1.506.216a37.87 37.87 0 0 0-.568 4.643c.591-.023 1.182-.034 1.764-.034 1.631 0 3.26.092 4.844.274 6.962.801 13.34 3.338 18.96 7.547.257.193.522.394.805.612.44-1.757.676-3.596.676-5.491a22.406 22.406 0 0 0-4.962-14.096l-.154.08ZM14.712 29.495a67.017 67.017 0 0 1-.271-2.866 58.391 58.391 0 0 1-.144-3.147 50.62 50.62 0 0 0-8.9 2.01c-1.844.59-3.338 1.156-4.703 1.781l-.17.077a22.348 22.348 0 0 0 3.55 8.065c1.716-2.657 4.47-4.577 7.793-5.423.921-.233 1.874-.4 2.845-.497ZM30.966 43.232c-.16-.591-.291-1.201-.39-1.818-.342-2.139-2.939-5.47-6.113-6.834a19.784 19.784 0 0 0-5.628-1.503c.623 3.638 1.554 7.547 2.772 11.636l.081.272a22.429 22.429 0 0 0 9.307-1.646l-.03-.107ZM15.207 33.036c-.842.08-1.666.221-2.458.422-2.753.698-4.917 2.347-6.096 4.642l-.127.246a22.464 22.464 0 0 0 11.303 6.168c-1.15-4.014-2.032-7.87-2.622-11.478Z" fill="#FF7F00"/><path d="M42.921 31.429c-.546-.43-1.05-.82-1.545-1.19-6.309-4.726-13.572-7.12-21.586-7.12-.634 0-1.278.016-1.925.046.015 1.066.062 2.16.144 3.265.07.97.169 1.98.293 3.01 2.57.175 5.114.798 7.57 1.854 4.034 1.732 7.65 5.928 8.232 9.553.045.28.1.558.163.832a22.588 22.588 0 0 0 8.827-10.113l-.173-.137Z" fill="#FF7F00"/></svg>