<svg width="48" height="48" fill="none" xmlns="http://www.w3.org/2000/svg"><path d="M46.921 16.867a24.203 24.203 0 0 0-5.157-9A23.924 23.924 0 0 0 29.204.573a23.96 23.96 0 0 0-10.402 0C13.948 1.652 9.607 4.18 6.242 7.874a24.14 24.14 0 0 0-5.163 8.993 24.095 24.095 0 0 0 .074 14.488 24.131 24.131 0 0 0 5.198 8.892 23.846 23.846 0 0 0 12.512 7.194C20.555 47.81 22.28 48 24 48c1.72 0 3.445-.189 5.137-.56a23.845 23.845 0 0 0 12.512-7.193 24.13 24.13 0 0 0 5.198-8.892A23.893 23.893 0 0 0 48 24c0-2.434-.364-4.834-1.079-7.133Zm-2.48 13.807a21.424 21.424 0 0 1-4.565 7.814 21.548 21.548 0 0 1-11.36 6.532 21.64 21.64 0 0 1-4.51.479c-1.55 0-3.053-.169-4.51-.479a21.504 21.504 0 0 1-11.359-6.532 21.481 21.481 0 0 1-4.564-7.814A21.073 21.073 0 0 1 2.494 24c0-2.252.35-4.422.998-6.465A21.496 21.496 0 0 1 8.03 9.62a21.443 21.443 0 0 1 11.393-6.627 21.353 21.353 0 0 1 9.155-.006 21.555 21.555 0 0 1 11.394 6.627 21.497 21.497 0 0 1 4.537 7.914 21.462 21.462 0 0 1-.068 13.146Z" fill="#fff"/><path d="M22.133 11.124a87.5 87.5 0 0 1-2.178-5.98A19.258 19.258 0 0 0 9.641 11.15a87.034 87.034 0 0 1 4.085 4.881 12.994 12.994 0 0 1 8.407-4.907ZM25.793 36.89a88.985 88.985 0 0 1 2.198 5.98 19.29 19.29 0 0 0 10.287-5.913A89.417 89.417 0 0 1 34.2 32.07a13.023 13.023 0 0 1-8.407 4.82ZM13.807 32.07a86.87 86.87 0 0 1-4.078 4.88 19.31 19.31 0 0 0 10.287 5.913 87.561 87.561 0 0 1 2.198-5.98 12.97 12.97 0 0 1-8.407-4.813ZM34.282 16.031a90.049 90.049 0 0 1 4.085-4.88 19.257 19.257 0 0 0-10.314-6.007 94.089 94.089 0 0 1-2.178 5.98 13.01 13.01 0 0 1 8.407 4.907ZM10.988 24c0-1.679.324-3.283.904-4.76-2.09-.29-4.18-.653-6.263-1.098a19.321 19.321 0 0 0-.91 5.851c0 2.11.344 4.146.977 6.048a88.564 88.564 0 0 1 6.277-1.093A12.858 12.858 0 0 1 10.988 24ZM36.108 19.24a12.992 12.992 0 0 1-.08 9.715c2.096.29 4.186.647 6.276 1.092A19.1 19.1 0 0 0 43.28 24c0-2.043-.323-4.005-.91-5.852a87.545 87.545 0 0 1-6.263 1.093ZM34.685 24c0-5.892-4.793-10.685-10.685-10.685S13.315 18.108 13.315 24 18.108 34.685 24 34.685 34.685 29.892 34.685 24Z" fill="#fff"/></svg>