<svg width="48" height="42" fill="none" xmlns="http://www.w3.org/2000/svg"><path d="M45.24 2.27A3 3 0 0 0 42.33 0H5.67a3 3 0 0 0-2.91 2.27L.045 12.135c-.03.12-.045.24-.045.365C0 16.635 3.195 20 7.125 20c2.285 0 4.32-1.135 5.625-2.9 1.305 1.765 3.34 2.9 5.625 2.9s4.32-1.135 5.625-2.9c1.305 1.765 3.34 2.9 5.625 2.9s4.32-1.135 5.625-2.9c1.305 1.765 3.34 2.9 5.625 2.9C44.805 20 48 16.635 48 12.5a1.49 1.49 0 0 0-.045-.365L45.24 2.27ZM42 42c1.655 0 3-1.345 3-3V23.07a9.793 9.793 0 0 1-4.125.93 9.82 9.82 0 0 1-5.625-1.765c-3.28 2.28-7.97 2.28-11.25 0-3.28 2.28-7.97 2.28-11.25 0A9.82 9.82 0 0 1 7.125 24c-1.47 0-2.86-.345-4.125-.93V39c0 1.655 1.345 3 3 3h12V30h12v12h12Z" fill="#FF7F00"/></svg>