<svg width="44" height="44" fill="none" xmlns="http://www.w3.org/2000/svg"><path d="M20.28 23.72a13.84 13.84 0 0 1-3.04-4.569L.671 35.72a.802.802 0 0 0-.232.511l-.438 6.924A.794.794 0 0 0 .795 44c.017 0 .034 0 .05-.002l6.926-.438a.802.802 0 0 0 .512-.232l2.553-2.554a.793.793 0 0 0 .232-.517l.218-3.857 3.865-.224a.794.794 0 0 0 .745-.72l.315-3.433 3.396-.282a.795.795 0 0 0 .496-.23l4.753-4.752a13.85 13.85 0 0 1-4.576-3.04Z" fill="#FF7F00"/><path d="M39.936 4.064c-5.42-5.42-14.236-5.42-19.656 0a13.81 13.81 0 0 0-4.071 9.829c0 3.713 1.445 7.202 4.071 9.826a13.852 13.852 0 0 0 9.827 4.064c3.56 0 7.12-1.355 9.829-4.064 5.417-5.419 5.417-14.236 0-19.655Zm-6.08 9.655a3.58 3.58 0 0 1-3.577-3.577 3.58 3.58 0 0 1 3.577-3.575 3.58 3.58 0 0 1 3.576 3.575 3.58 3.58 0 0 1-3.576 3.577Z" fill="#FF7F00"/></svg>