<svg width="50" height="50" fill="none" xmlns="http://www.w3.org/2000/svg"><path d="M25 4.167c11.506 0 20.833 9.327 20.833 20.833 0 11.506-9.327 20.833-20.833 20.833-11.506 0-20.833-9.327-20.833-20.833C4.167 13.494 13.494 4.167 25 4.167Zm0 18.75c-4.167 0-7.64.693-10.417 2.083a10.417 10.417 0 0 0 20.834 0c-2.777-1.39-6.25-2.083-10.417-2.083Zm-7.292-8.334c-2.4 0-4.42 1.625-5.025 3.834l-.079.333h10.209a5.208 5.208 0 0 0-5.105-4.167Zm14.584 0c-2.4 0-4.421 1.625-5.025 3.834l-.08.333h10.209a5.208 5.208 0 0 0-5.104-4.167Z" fill="#fff"/></svg>