<svg width="50" height="51" fill="none" xmlns="http://www.w3.org/2000/svg"><g clip-path="url(#a)"><path d="M48.7 5.627c-1.18-1.534-3.03-2.399-4.959-2.399h-2.167c.029-.624.052-1.007.066-1.525A1.651 1.651 0 0 0 39.995 0H10.023c-.93 0-1.673.771-1.647 1.703.015.517.038.9.066 1.525H6.274c-1.93 0-3.777.865-4.958 2.4A6.226 6.226 0 0 0 .184 10.96l.064.236c2.074 8.112 8.014 13.982 14.124 13.982.348 0 .47-.023.814-.06 1.634 2.142 3.651 3.752 5.258 4.694v2.534a1.22 1.22 0 0 0 1.218 1.224h.71v5.488h-.71a1.22 1.22 0 0 0-1.218 1.224v3.294h-1.3a1.22 1.22 0 0 0-1.218 1.224v2.327h-2.094c-.67 0-1.219.55-1.219 1.224V51h19.929v-2.649a1.22 1.22 0 0 0-1.218-1.224h-2.06V44.8a1.22 1.22 0 0 0-1.219-1.224h-1.248v-3.294a1.22 1.22 0 0 0-1.218-1.224h-.71V33.57h.71a1.22 1.22 0 0 0 1.218-1.224v-2.534c2.248-.942 4.012-2.552 5.647-4.694.344.038.774.062 1.121.062 6.11 0 12.091-5.888 14.165-13.998.022-.085.064-.135.085-.221.457-1.882.064-3.8-1.115-5.334ZM2.907 10.494l-.057-.229a3.692 3.692 0 0 1 .656-3.11c.683-.875 1.71-1.443 2.817-1.443h2.341c.682 6.528 2.449 12.258 4.933 16.595-4.543-.512-9.046-5.381-10.69-11.813Zm44.26-.228-.057.226c-1.645 6.434-6.147 11.303-10.691 11.815 2.485-4.337 4.25-10.067 4.933-16.595h2.342c1.107 0 2.133.568 2.817 1.443a3.69 3.69 0 0 1 .656 3.111Z" fill="#fff"/></g><defs><clipPath id="a"><path fill="#fff" d="M0 0h50v51H0z"/></clipPath></defs></svg>